<svg width="52" height="160" viewBox="0 0 52 160" fill="none" xmlns="http://www.w3.org/2000/svg">
<path d="M3.16156 156.616C2.39696 156.934 2.03561 157.813 2.35447 158.577C2.67332 159.342 3.55164 159.703 4.31625 159.384L3.16156 156.616ZM1.46418 5.59897C0.690409 5.89489 0.30304 6.76205 0.598966 7.53582L5.42136 20.1451C5.71729 20.9189 6.58445 21.3063 7.35821 21.0103C8.13198 20.7144 8.51935 19.8473 8.22343 19.0735L3.93686 7.86521L15.1451 3.57864C15.9189 3.28271 16.3063 2.41555 16.0103 1.64179C15.7144 0.868016 14.8473 0.480647 14.0735 0.776573L1.46418 5.59897ZM4.31625 159.384C36.733 145.866 52.0897 114.413 51.4827 82.9592C50.8758 51.5169 34.3183 19.794 2.6118 5.63044L1.3882 8.36956C31.8476 21.9761 47.8946 52.5191 48.4832 83.0171C49.0716 113.504 34.2149 143.666 3.16156 156.616L4.31625 159.384Z" fill="white"/>
</svg>
