<svg width="80" height="106" viewBox="0 0 80 106" fill="none" xmlns="http://www.w3.org/2000/svg">
<path d="M30.1702 106V92.8792H38.4709V95.9269H33.6396V106H30.1702Z" fill="white"/>
<path d="M48.8789 106V100.86H43.7392V106H40.2955V92.8792H43.7392V97.7866H48.8789V92.8792H52.3225V106H48.8789Z" fill="white"/>
<path d="M72.3675 106V95.9269H68.3328V92.8792H79.8715V95.9269H75.8111V106H72.3675Z" fill="white"/>
<path d="M63.2445 106V98.5356L57.7449 106H54.8667V92.8792H58.336V100.292L63.7327 92.8792H66.7138V106H63.2445Z" fill="white"/>
<path d="M10.3566 106V98.1998L6.91295 102.332L3.44362 98.1998V106H0V92.8792H3.39223L6.91295 97.3991L10.3823 92.8792H13.8002V106H10.3566Z" fill="white"/>
<path d="M20.3534 101.402H23.5657L21.9467 97.2699L20.3534 101.402ZM25.3646 105.897L24.645 104.063H19.274L18.5544 105.897H15.0851L20.3791 92.9824H23.5657L28.8853 105.897H25.3646Z" fill="white"/>
<path d="M3.55002e-05 24.2013C-0.00697087 21.0207 0.616643 17.8705 1.83446 14.9347C3.05227 11.999 4.83987 9.33654 7.09287 7.10288C9.33515 4.84546 11.9993 3.05581 14.9322 1.83684C17.8651 0.617877 21.0088 -0.00635287 24.1825 4.87423e-05H80V12.2944H24.1825C22.6201 12.2914 21.0727 12.6003 19.6301 13.2033C18.1875 13.8064 16.8785 14.6914 15.779 15.8071C14.6705 16.9025 13.7904 18.2091 13.1903 19.6504C12.5902 21.0917 12.2821 22.6389 12.284 24.2013V44.8641C12.0234 47.5115 10.8992 49.998 9.08656 51.9366C7.27388 53.8752 4.87436 55.1572 2.26152 55.5829L3.55002e-05 55.8928V24.2013Z" fill="white"/>
<path d="M0 80.5848V68.2905H55.8175C58.9582 68.2703 61.9652 67.011 64.1908 64.7838C66.4164 62.5566 67.6824 59.5399 67.716 56.3835V36.8056C67.7367 33.9576 68.7637 31.2098 70.6136 29.0524C72.4636 26.8951 75.0161 25.4687 77.8156 25.0278L80 24.692V56.3835C80.007 59.5642 79.3834 62.7144 78.1656 65.6501C76.9478 68.5859 75.1602 71.2483 72.9072 73.482C70.6649 75.7394 68.0007 77.529 65.0678 78.748C62.135 79.967 58.9913 80.5912 55.8175 80.5848H0Z" fill="white"/>
<path d="M47.2599 55.9445V40.0341L39.9872 48.7383L32.7144 40.0341V55.9445H23.0774V24.6404H32.2261L39.9872 34.7135L47.7739 24.6404H56.8969V55.9445H47.2599Z" fill="white"/>
</svg>
