<svg width="299" height="139" viewBox="0 0 299 139" fill="none" xmlns="http://www.w3.org/2000/svg">
<g clip-path="url(#clip0_1_34)">
<path d="M30.0429 0H27.1815V124.769H30.0429V0Z" fill="black"/>
<path d="M35.7658 0H32.9043V124.769H35.7658V0Z" fill="black"/>
<path d="M50.0717 0H44.3495V109.33H50.0717V0Z" fill="black"/>
<path d="M55.7946 0H52.9332V109.33H55.7946V0Z" fill="black"/>
<path d="M67.2391 0H61.7369V109.33H67.2391V0Z" fill="black"/>
<path d="M75.8228 0H73.1815V109.33H75.8228V0Z" fill="black"/>
<path d="M81.5457 0H78.6842V109.33H81.5457V0Z" fill="black"/>
<path d="M95.8516 0H87.2679V109.33H95.8516V0Z" fill="black"/>
<path d="M101.574 0H98.7131V109.33H101.574V0Z" fill="black"/>
<path d="M115.88 0H107.297V109.33H115.88V0Z" fill="black"/>
<path d="M130.186 0H124.464V109.33H130.186V0Z" fill="black"/>
<path d="M135.909 0H133.048V109.33H135.909V0Z" fill="black"/>
<path d="M141.632 0H138.77V109.33H141.632V0Z" fill="black"/>
<path d="M155.938 0H153.076V109.33H155.938V0Z" fill="black"/>
<path d="M161.66 0H158.799V124.769H161.66V0Z" fill="black"/>
<path d="M167.383 0H164.521V124.769H167.383V0Z" fill="black"/>
<path d="M173.105 0H170.244V109.33H173.105V0Z" fill="black"/>
<path d="M184.55 0H175.966V109.33H184.55V0Z" fill="black"/>
<path d="M192.914 0H190.272V109.33H192.914V0Z" fill="black"/>
<path d="M204.359 0H201.717V109.33H204.359V0Z" fill="black"/>
<path d="M213.163 0H210.301V109.33H213.163V0Z" fill="black"/>
<path d="M227.469 0H218.885V109.33H227.469V0Z" fill="black"/>
<path d="M233.191 0H230.33V109.33H233.191V0Z" fill="black"/>
<path d="M244.636 0H236.052V109.33H244.636V0Z" fill="black"/>
<path d="M258.942 0H250.359V109.33H258.942V0Z" fill="black"/>
<path d="M267.526 0H264.665V109.33H267.526V0Z" fill="black"/>
<path d="M273.248 0H270.387V109.33H273.248V0Z" fill="black"/>
<path d="M278.971 0H276.11V109.33H278.971V0Z" fill="black"/>
<path d="M293.277 0H290.416V124.769H293.277V0Z" fill="black"/>
<path d="M299 0H296.139V124.769H299V0Z" fill="black"/>
<path d="M18.0987 134.541V137.567H1.17653C1.15325 136.809 1.27549 136.08 1.54327 135.38C1.97403 134.226 2.66093 133.089 3.60397 131.969C4.55864 130.85 5.93244 129.555 7.72537 128.086C10.5079 125.8 12.3881 123.993 13.3661 122.663C14.3441 121.322 14.833 120.057 14.833 118.867C14.833 117.62 14.3848 116.57 13.4883 115.719C12.6035 114.856 11.4451 114.424 10.0131 114.424C8.49959 114.424 7.28878 114.879 6.38068 115.789C5.47257 116.698 5.0127 117.958 5.00105 119.567L1.77029 119.235C1.9915 116.821 2.82393 114.984 4.26758 113.725C5.71124 112.454 7.6497 111.818 10.083 111.818C12.5395 111.818 14.4838 112.5 15.9158 113.865C17.3478 115.229 18.0638 116.92 18.0638 118.937C18.0638 119.964 17.8542 120.972 17.4351 121.964C17.016 122.955 16.3174 123.999 15.3395 125.095C14.3732 126.191 12.7607 127.695 10.5021 129.608C8.61601 131.194 7.40521 132.273 6.86966 132.844C6.33411 133.404 5.8917 133.969 5.54242 134.541H18.0987Z" fill="black"/>
<path d="M40.5057 124.92C40.5057 121.888 40.8142 119.451 41.4313 117.608C42.06 115.754 42.9855 114.325 44.208 113.322C45.4421 112.319 46.9905 111.818 48.8533 111.818C50.2271 111.818 51.4321 112.098 52.4683 112.658C53.5044 113.206 54.3602 114.005 55.0354 115.054C55.7107 116.092 56.2404 117.363 56.6246 118.867C57.0088 120.36 57.2009 122.378 57.2009 124.92C57.2009 127.929 56.8924 130.36 56.2753 132.214C55.6583 134.057 54.7327 135.485 53.4986 136.5C52.2762 137.503 50.7277 138.004 48.8533 138.004C46.3851 138.004 44.4467 137.118 43.0379 135.345C41.3498 133.211 40.5057 129.736 40.5057 124.92ZM43.7365 124.92C43.7365 129.13 44.2255 131.934 45.2034 133.334C46.193 134.722 47.4097 135.415 48.8533 135.415C50.297 135.415 51.5078 134.716 52.4857 133.316C53.4753 131.917 53.9701 129.118 53.9701 124.92C53.9701 120.698 53.4753 117.894 52.4857 116.506C51.5078 115.118 50.2853 114.424 48.8184 114.424C47.3747 114.424 46.2221 115.037 45.3606 116.261C44.2779 117.824 43.7365 120.71 43.7365 124.92Z" fill="black"/>
<path d="M72.2545 137.567H69.1111V117.503C68.3543 118.226 67.3589 118.949 66.1248 119.672C64.9023 120.395 63.8021 120.937 62.8242 121.299V118.255C64.5822 117.427 66.119 116.424 67.4345 115.247C68.7501 114.069 69.6815 112.926 70.2287 111.818H72.2545V137.567Z" fill="black"/>
<path d="M80.3227 124.92C80.3227 121.888 80.6312 119.451 81.2482 117.608C81.8769 115.754 82.8025 114.325 84.0249 113.322C85.259 112.319 86.8075 111.818 88.6703 111.818C90.0441 111.818 91.249 112.098 92.2852 112.658C93.3214 113.206 94.1771 114.005 94.8524 115.054C95.5276 116.092 96.0573 117.363 96.4415 118.867C96.8257 120.36 97.0178 122.378 97.0178 124.92C97.0178 127.929 96.7093 130.36 96.0923 132.214C95.4752 134.057 94.5497 135.485 93.3156 136.5C92.0931 137.503 90.5447 138.004 88.6703 138.004C86.2021 138.004 84.2636 137.118 82.8549 135.345C81.1667 133.211 80.3227 129.736 80.3227 124.92ZM83.5534 124.92C83.5534 129.13 84.0424 131.934 85.0204 133.334C86.01 134.722 87.2266 135.415 88.6703 135.415C90.1139 135.415 91.3247 134.716 92.3027 133.316C93.2923 131.917 93.7871 129.118 93.7871 124.92C93.7871 120.698 93.2923 117.894 92.3027 116.506C91.3247 115.118 90.1023 114.424 88.6353 114.424C87.1917 114.424 86.0391 115.037 85.1775 116.261C84.0948 117.824 83.5534 120.71 83.5534 124.92Z" fill="black"/>
<path d="M100.231 124.92C100.231 121.888 100.54 119.451 101.157 117.608C101.785 115.754 102.711 114.325 103.933 113.322C105.168 112.319 106.716 111.818 108.579 111.818C109.953 111.818 111.158 112.098 112.194 112.658C113.23 113.206 114.086 114.005 114.761 115.054C115.436 116.092 115.966 117.363 116.35 118.867C116.734 120.36 116.926 122.378 116.926 124.92C116.926 127.929 116.618 130.36 116.001 132.214C115.384 134.057 114.458 135.485 113.224 136.5C112.002 137.503 110.453 138.004 108.579 138.004C106.111 138.004 104.172 137.118 102.763 135.345C101.075 133.211 100.231 129.736 100.231 124.92ZM103.462 124.92C103.462 129.13 103.951 131.934 104.929 133.334C105.918 134.722 107.135 135.415 108.579 135.415C110.022 135.415 111.233 134.716 112.211 133.316C113.201 131.917 113.696 129.118 113.696 124.92C113.696 120.698 113.201 117.894 112.211 116.506C111.233 115.118 110.011 114.424 108.544 114.424C107.1 114.424 105.948 115.037 105.086 116.261C104.003 117.824 103.462 120.71 103.462 124.92Z" fill="black"/>
<path d="M120.14 124.92C120.14 121.888 120.448 119.451 121.065 117.608C121.694 115.754 122.619 114.325 123.842 113.322C125.076 112.319 126.624 111.818 128.487 111.818C129.861 111.818 131.066 112.098 132.102 112.658C133.138 113.206 133.994 114.005 134.669 115.054C135.345 116.092 135.874 117.363 136.258 118.867C136.643 120.36 136.835 122.378 136.835 124.92C136.835 127.929 136.526 130.36 135.909 132.214C135.292 134.057 134.367 135.485 133.133 136.5C131.91 137.503 130.362 138.004 128.487 138.004C126.019 138.004 124.081 137.118 122.672 135.345C120.984 133.211 120.14 129.736 120.14 124.92ZM123.37 124.92C123.37 129.13 123.859 131.934 124.837 133.334C125.827 134.722 127.044 135.415 128.487 135.415C129.931 135.415 131.142 134.716 132.12 133.316C133.109 131.917 133.604 129.118 133.604 124.92C133.604 120.698 133.109 117.894 132.12 116.506C131.142 115.118 129.919 114.424 128.452 114.424C127.009 114.424 125.856 115.037 124.994 116.261C123.912 117.824 123.37 120.71 123.37 124.92Z" fill="black"/>
<path d="M140.066 130.797L143.209 130.378C143.57 132.162 144.181 133.45 145.043 134.243C145.916 135.025 146.975 135.415 148.221 135.415C149.7 135.415 150.945 134.902 151.958 133.876C152.983 132.85 153.495 131.579 153.495 130.063C153.495 128.617 153.024 127.427 152.08 126.494C151.137 125.55 149.938 125.077 148.483 125.077C147.889 125.077 147.15 125.194 146.265 125.427L146.614 122.663C146.824 122.687 146.993 122.698 147.121 122.698C148.46 122.698 149.665 122.349 150.736 121.649C151.807 120.949 152.342 119.87 152.342 118.413C152.342 117.258 151.952 116.302 151.172 115.544C150.392 114.786 149.385 114.407 148.151 114.407C146.929 114.407 145.91 114.792 145.095 115.561C144.28 116.331 143.756 117.486 143.523 119.025L140.38 118.465C140.764 116.354 141.637 114.722 142.999 113.567C144.362 112.401 146.056 111.818 148.081 111.818C149.478 111.818 150.765 112.121 151.941 112.728C153.117 113.322 154.013 114.139 154.63 115.177C155.259 116.214 155.573 117.316 155.573 118.483C155.573 119.591 155.276 120.599 154.683 121.509C154.089 122.418 153.21 123.142 152.046 123.678C153.559 124.028 154.735 124.757 155.573 125.865C156.411 126.961 156.831 128.337 156.831 129.993C156.831 132.232 156.016 134.133 154.386 135.695C152.756 137.246 150.695 138.022 148.204 138.022C145.957 138.022 144.088 137.351 142.598 136.01C141.119 134.669 140.275 132.931 140.066 130.797Z" fill="black"/>
<path d="M180.768 137.567V131.427H169.662V128.541L181.345 111.923H183.912V128.541H187.37V131.427H183.912V137.567H180.768ZM180.768 128.541V116.978L172.753 128.541H180.768Z" fill="black"/>
<path d="M190.81 115.282V112.255H207.383V114.704C205.753 116.442 204.135 118.751 202.528 121.631C200.933 124.512 199.699 127.474 198.826 130.518C198.197 132.663 197.795 135.013 197.621 137.567H194.39C194.425 135.55 194.821 133.112 195.578 130.255C196.334 127.398 197.417 124.646 198.826 121.999C200.246 119.34 201.754 117.101 203.349 115.282H190.81Z" fill="black"/>
<path d="M210.509 130.85L213.81 130.57C214.054 132.179 214.619 133.392 215.503 134.208C216.4 135.013 217.477 135.415 218.734 135.415C220.248 135.415 221.528 134.844 222.576 133.701C223.624 132.558 224.148 131.042 224.148 129.153C224.148 127.357 223.641 125.94 222.629 124.902C221.627 123.865 220.312 123.346 218.682 123.346C217.669 123.346 216.755 123.579 215.94 124.045C215.125 124.5 214.485 125.095 214.019 125.83L211.068 125.445L213.548 112.273H226.278V115.282H216.062L214.683 122.174C216.219 121.101 217.832 120.564 219.52 120.564C221.755 120.564 223.641 121.34 225.178 122.891C226.715 124.442 227.483 126.436 227.483 128.873C227.483 131.194 226.808 133.2 225.458 134.891C223.816 136.966 221.575 138.004 218.734 138.004C216.406 138.004 214.502 137.351 213.024 136.045C211.557 134.739 210.718 133.007 210.509 130.85Z" fill="black"/>
<path d="M240.494 137.567V131.427H229.387V128.541L241.07 111.923H243.637V128.541H247.095V131.427H243.637V137.567H240.494ZM240.494 128.541V116.978L232.478 128.541H240.494Z" fill="black"/>
<path d="M250.326 124.92C250.326 121.888 250.634 119.451 251.251 117.608C251.88 115.754 252.806 114.325 254.028 113.322C255.262 112.319 256.811 111.818 258.673 111.818C260.047 111.818 261.252 112.098 262.288 112.658C263.325 113.206 264.18 114.005 264.856 115.054C265.531 116.092 266.061 117.363 266.445 118.867C266.829 120.36 267.021 122.378 267.021 124.92C267.021 127.929 266.712 130.36 266.095 132.214C265.478 134.057 264.553 135.485 263.319 136.5C262.096 137.503 260.548 138.004 258.673 138.004C256.205 138.004 254.267 137.118 252.858 135.345C251.17 133.211 250.326 129.736 250.326 124.92ZM253.557 124.92C253.557 129.13 254.046 131.934 255.024 133.334C256.013 134.722 257.23 135.415 258.673 135.415C260.117 135.415 261.328 134.716 262.306 133.316C263.295 131.917 263.79 129.118 263.79 124.92C263.79 120.698 263.295 117.894 262.306 116.506C261.328 115.118 260.105 114.424 258.638 114.424C257.195 114.424 256.042 115.037 255.181 116.261C254.098 117.824 253.557 120.71 253.557 124.92Z" fill="black"/>
<path d="M286.545 118.203L283.419 118.448C283.14 117.212 282.744 116.314 282.232 115.754C281.382 114.856 280.334 114.407 279.088 114.407C278.087 114.407 277.208 114.687 276.451 115.247C275.462 115.97 274.682 117.025 274.111 118.413C273.541 119.8 273.244 121.777 273.221 124.343C273.977 123.188 274.903 122.331 275.997 121.771C277.092 121.211 278.238 120.932 279.438 120.932C281.533 120.932 283.315 121.707 284.781 123.258C286.26 124.797 286.999 126.792 286.999 129.241C286.999 130.85 286.65 132.348 285.952 133.736C285.265 135.112 284.316 136.168 283.105 136.902C281.894 137.637 280.52 138.004 278.984 138.004C276.364 138.004 274.228 137.042 272.574 135.118C270.921 133.182 270.095 129.999 270.095 125.567C270.095 120.611 271.009 117.007 272.836 114.757C274.431 112.798 276.579 111.818 279.28 111.818C281.295 111.818 282.942 112.384 284.223 113.515C285.515 114.646 286.289 116.209 286.545 118.203ZM273.71 129.258C273.71 130.343 273.937 131.38 274.391 132.372C274.856 133.363 275.502 134.121 276.329 134.646C277.156 135.159 278.023 135.415 278.931 135.415C280.258 135.415 281.399 134.879 282.354 133.806C283.309 132.733 283.786 131.276 283.786 129.433C283.786 127.66 283.315 126.267 282.371 125.252C281.428 124.226 280.241 123.713 278.809 123.713C277.389 123.713 276.184 124.226 275.194 125.252C274.204 126.267 273.71 127.602 273.71 129.258Z" fill="black"/>
</g>
<defs>
<clipPath id="clip0_1_34">
<rect width="299" height="139" fill="white"/>
</clipPath>
</defs>
</svg>
