<svg width="200" height="185" viewBox="0 0 200 185" fill="none" xmlns="http://www.w3.org/2000/svg">
<g clip-path="url(#clip0_1_8)">
<path d="M200 0H0V185H200V0Z" fill="#BA0C2F"/>
<path d="M44.9691 79.1311V72.7185C44.9691 69.6938 44.1041 68.9677 42.3747 68.9677C40.6454 68.9677 39.7804 69.6938 39.7804 72.7185V80.0991C39.7804 84.4548 53.3691 96.3123 53.3691 102.362V113.01C53.3691 120.874 47.5631 123.173 42.3747 123.173C37.1864 123.173 31.3802 120.874 31.3802 113.01V109.743L39.7804 104.903V112.283C39.7804 115.309 40.6454 116.034 42.3747 116.034C43.9807 116.034 44.9691 115.309 44.9691 112.283V105.992C44.9691 97.5224 31.3802 90.3837 31.3802 80.583V71.9924C31.3802 64.1279 37.1864 61.829 42.3747 61.829C47.5631 61.829 53.3691 64.1279 53.3691 71.9924V74.1705L44.9691 79.1311Z" fill="white"/>
<path d="M101.294 115.066H108.088L110.436 123.173H92.894V61.829H101.294V115.066Z" fill="white"/>
<path d="M168.623 61.8273V69.934H160.593V123.171H152.193V69.934H144.781L143.916 61.8273H168.623Z" fill="white"/>
<path d="M135.391 61.8273H122.791L116.367 123.171H124.026L125.879 106.837H131.809L133.415 123.171H141.939L135.391 61.8273ZM126.62 98.7305L128.473 76.2256H129.462L130.944 98.7305H126.62Z" fill="white"/>
<path d="M70.9064 61.8273H62.1354V123.171H70.5357V69.2082C73.9947 69.2082 75.724 69.3291 75.724 75.1368V89.7772C75.724 91.7131 73.9947 92.318 72.018 92.5598L73.9947 99.8197C80.6654 99.0936 84.1244 96.0688 84.1244 87.3573V73.8057C84.0007 65.5782 80.1714 61.8273 70.9064 61.8273Z" fill="white"/>
<path d="M170.964 54.4468V48.7601H173.558C174.052 48.7601 174.422 48.7601 174.793 48.881L175.411 49.365C175.534 49.6068 175.658 49.8489 175.658 50.212C175.658 50.5747 175.534 50.9378 175.287 51.1799C175.04 51.4218 174.67 51.6639 174.052 51.6639L174.546 51.9057C174.793 52.1479 174.917 52.3897 175.164 52.6319L176.152 54.2047H175.164L174.422 52.9949C174.175 52.6319 174.052 52.3897 173.928 52.2688L173.558 51.9057L173.187 51.7848H172.817H171.705V54.4468H170.964ZM171.705 51.3008H173.311C173.681 51.3008 173.928 51.3008 174.175 51.1799L174.67 50.8169L174.793 50.3329L174.422 49.728C174.299 49.6068 173.928 49.4859 173.434 49.4859H171.705V51.3008Z" fill="white"/>
<path d="M167.754 51.7851C167.754 54.689 170.225 57.1088 173.313 57.1088C176.278 57.1088 178.748 54.689 178.748 51.7851C178.748 48.8813 176.278 46.4614 173.313 46.4614C170.225 46.4614 167.754 48.8813 167.754 51.7851ZM168.372 51.7851C168.372 49.1231 170.595 47.0663 173.189 47.0663C175.784 47.0663 178.007 49.1231 178.007 51.7851C178.007 54.3259 175.907 56.504 173.189 56.504C170.595 56.504 168.372 54.4468 168.372 51.7851Z" fill="white"/>
</g>
<defs>
<clipPath id="clip0_1_8">
<rect width="200" height="185" fill="white"/>
</clipPath>
</defs>
</svg>
